<svg width="25" height="24" viewBox="0 0 25 24" fill="none" xmlns="http://www.w3.org/2000/svg">
<path d="M20.502 6.5H17.502V4.5C17.502 3.39 16.612 2.5 15.502 2.5H9.50195C8.39195 2.5 7.50195 3.39 7.50195 4.5V6.5H4.50195C3.39195 6.5 2.50195 7.39 2.50195 8.5V19.5C2.50195 20.61 3.39195 21.5 4.50195 21.5H20.502C21.612 21.5 22.502 20.61 22.502 19.5V8.5C22.502 7.39 21.612 6.5 20.502 6.5ZM9.50195 4.5H15.502V6.5H9.50195V4.5ZM20.502 19.5H4.50195V17.5H20.502V19.5ZM20.502 14.5H4.50195V8.5H7.50195V10.5H9.50195V8.5H15.502V10.5H17.502V8.5H20.502V14.5Z" fill="black"/>
</svg>
