<svg width="22" height="22" viewBox="0 0 32 32" fill="none" xmlns="http://www.w3.org/2000/svg">
<path d="M22.0602 17.3332C23.0602 17.3332 23.9402 16.7865 24.3935 15.9598L29.1668 7.3065C29.6602 6.4265 29.0202 5.33317 28.0068 5.33317H8.27349L7.02016 2.6665H2.66016V5.33317H5.32682L10.1268 15.4532L8.32682 18.7065C7.35349 20.4932 8.63349 22.6665 10.6602 22.6665H26.6602V19.9998H10.6602L12.1268 17.3332H22.0602ZM9.54016 7.99984H25.7402L22.0602 14.6665H12.7002L9.54016 7.99984ZM10.6602 23.9998C9.19349 23.9998 8.00682 25.1998 8.00682 26.6665C8.00682 28.1332 9.19349 29.3332 10.6602 29.3332C12.1268 29.3332 13.3268 28.1332 13.3268 26.6665C13.3268 25.1998 12.1268 23.9998 10.6602 23.9998ZM23.9935 23.9998C22.5268 23.9998 21.3402 25.1998 21.3402 26.6665C21.3402 28.1332 22.5268 29.3332 23.9935 29.3332C25.4602 29.3332 26.6602 28.1332 26.6602 26.6665C26.6602 25.1998 25.4602 23.9998 23.9935 23.9998Z" fill="#C2C2C2"/>
</svg>
